<?xml version="1.0" encoding="UTF-8"?>
<!DOCTYPE svg PUBLIC "-//W3C//DTD SVG 1.1//EN" "http://www.w3.org/Graphics/SVG/1.1/DTD/svg11.dtd">
<svg xmlns="http://www.w3.org/2000/svg" version="1.1" width="512px" height="512px" style="shape-rendering:geometricPrecision; text-rendering:geometricPrecision; image-rendering:optimizeQuality; fill-rule:evenodd; clip-rule:evenodd" xmlns:xlink="http://www.w3.org/1999/xlink">
<g><path style="opacity:0.995" fill="#ce3b3b" d="M 346.5,153.5 C 337.168,166.635 324.501,174.801 308.5,178C 271.167,178.667 233.833,178.667 196.5,178C 188.353,176.729 180.686,174.062 173.5,170C 167.774,165.815 162.108,161.648 156.5,157.5C 138.426,133.583 134.926,107.583 146,79.5C 163.479,48.7736 189.645,36.9402 224.5,44C 233.337,46.4184 241.337,50.4184 248.5,56C 254.554,62.0541 260.554,68.0541 266.5,74C 268.833,74.6667 271.167,74.6667 273.5,74C 301.612,61.4879 325.445,66.9879 345,90.5C 356.939,111.224 357.439,132.224 346.5,153.5 Z"/></g>
<g><path style="opacity:0.993" fill="#e4e4e4" d="M 346.5,153.5 C 396.682,181.561 425.849,224.228 434,281.5C 435.592,324.482 435.925,367.482 435,410.5C 430.287,444.213 411.12,463.713 377.5,469C 295.833,469.667 214.167,469.667 132.5,469C 99.4194,463.253 80.5861,443.753 76,410.5C 75.3333,371.833 75.3333,333.167 76,294.5C 79.8008,234.958 106.634,189.292 156.5,157.5C 162.108,161.648 167.774,165.815 173.5,170C 180.686,174.062 188.353,176.729 196.5,178C 233.833,178.667 271.167,178.667 308.5,178C 324.501,174.801 337.168,166.635 346.5,153.5 Z"/></g>
<g><path style="opacity:1" fill="#030303" d="M 171.5,234.5 C 193.354,232.81 204.187,242.81 204,264.5C 199.27,279.447 189.103,286.28 173.5,285C 156.41,278.99 150.243,267.156 155,249.5C 158.798,242.531 164.298,237.531 171.5,234.5 Z"/></g>
<g><path style="opacity:1" fill="#030303" d="M 325.5,234.5 C 340.646,232.65 351.146,238.65 357,252.5C 359.187,274.978 349.021,285.812 326.5,285C 307.767,277.133 302.601,263.966 311,245.5C 314.857,240.468 319.69,236.801 325.5,234.5 Z"/></g>
<g><path style="opacity:1" fill="#feba33" d="M 244.5,268.5 C 275.095,268.754 302.762,277.921 327.5,296C 331.333,299.833 335.167,303.667 339,307.5C 345.863,316.793 344.696,324.96 335.5,332C 324.333,340.5 313.167,349 302,357.5C 290.92,377.995 279.587,398.328 268,418.5C 260.32,428.51 252.32,428.844 244,419.5C 232.333,398.833 220.667,378.167 209,357.5C 197.5,348.667 186,339.833 174.5,331C 165.333,322.431 165.166,313.598 174,304.5C 185.978,292.874 199.811,284.04 215.5,278C 225.114,274.295 234.78,271.128 244.5,268.5 Z"/></g>
</svg>
