<?xml version="1.0" encoding="UTF-8"?>
<!DOCTYPE svg PUBLIC "-//W3C//DTD SVG 1.1//EN" "http://www.w3.org/Graphics/SVG/1.1/DTD/svg11.dtd">
<svg xmlns="http://www.w3.org/2000/svg" version="1.1" width="512px" height="512px" style="shape-rendering:geometricPrecision; text-rendering:geometricPrecision; image-rendering:optimizeQuality; fill-rule:evenodd; clip-rule:evenodd" xmlns:xlink="http://www.w3.org/1999/xlink">
<g><path style="opacity:0.997" fill="#f7ebcf" d="M 285.5,-0.5 C 300.5,-0.5 315.5,-0.5 330.5,-0.5C 387.048,5.69215 435.548,28.6922 476,68.5C 500.257,97.1219 506.59,129.455 495,165.5C 486.869,192.228 478.535,218.894 470,245.5C 462.111,272.778 457.944,300.611 457.5,329C 459.131,348.808 459.631,368.641 459,388.5C 454.637,429.746 435.137,461.579 400.5,484C 375.361,498.879 348.361,508.046 319.5,511.5C 307.833,511.5 296.167,511.5 284.5,511.5C 254.072,506.747 225.072,497.247 197.5,483C 131.19,449.248 78.357,400.748 39,337.5C 21.3973,307.359 11.8973,274.859 10.5,240C 11.1117,211.504 18.6117,185.004 33,160.5C 81.9143,83.5918 150.414,32.7585 238.5,8C 254.152,4.28224 269.818,1.44891 285.5,-0.5 Z"/></g>
<g><path style="opacity:1" fill="#f7c452" d="M 243.5,149.5 C 289.141,147.067 323.974,165.067 348,203.5C 369.075,245.823 365.408,285.823 337,323.5C 306.137,356.595 268.637,367.762 224.5,357C 181.605,341.715 156.772,311.549 150,266.5C 147.811,214.026 170.645,177.192 218.5,156C 226.888,153.497 235.221,151.33 243.5,149.5 Z"/></g>
<g><path style="opacity:1" fill="#f7ebce" d="M 232.5,188.5 C 245.362,186.854 250.195,192.187 247,204.5C 238.473,209.429 230.473,215.096 223,221.5C 212.045,234.425 206.378,249.425 206,266.5C 198.774,273.682 192.441,273.016 187,264.5C 185.573,238.518 194.739,217.018 214.5,200C 220.395,195.893 226.395,192.059 232.5,188.5 Z"/></g>
</svg>
